<svg width="41" height="41" viewBox="0 0 41 41" fill="none" xmlns="http://www.w3.org/2000/svg">
<path d="M39.5206 17.4649C39.7839 15.6984 39.6975 13.89 39.2615 12.1511C38.6856 9.85405 37.4993 7.67863 35.703 5.88228C33.9066 4.08594 31.7312 2.89977 29.4342 2.32379C27.6954 1.88777 25.8868 1.80142 24.1204 2.06473" stroke="#F8F8FF" stroke-width="2" stroke-linecap="round" stroke-linejoin="round"/>
<path d="M31.6143 16.6286C31.8964 14.7363 31.3091 12.7394 29.8524 11.2828C28.3957 9.8261 26.3989 9.2387 24.5066 9.52079" stroke="#F8F8FF" stroke-width="2" stroke-linecap="round" stroke-linejoin="round"/>
<path d="M10.9747 5.16113C11.7315 5.16113 12.4288 5.57162 12.7962 6.23329L15.3445 10.8237C15.6782 11.4247 15.6939 12.1517 15.3864 12.7666L12.9314 17.6766C12.9314 17.6766 13.6429 21.3344 16.6204 24.3119C19.598 27.2894 23.2434 27.9886 23.2434 27.9886L28.1527 25.534C28.768 25.2263 29.4955 25.2422 30.0967 25.5765L34.7002 28.1359C35.3613 28.5034 35.7712 29.2004 35.7712 29.9567V35.2416C35.7712 37.933 33.2713 39.8768 30.7212 39.0163C25.4838 37.2491 17.3539 33.8843 12.201 28.7313C7.04797 23.5784 3.68318 15.4485 1.91598 10.2111C1.05554 7.661 2.99938 5.16113 5.69068 5.16113H10.9747Z" stroke="#F8F8FF" stroke-width="2" stroke-linejoin="round"/>
</svg>
